<svg width="208" height="208" viewBox="0 0 208 208" fill="none" xmlns="http://www.w3.org/2000/svg">
<rect x="0.5" y="0.5" width="207" height="207" rx="4.5" stroke="#8A38F5" stroke-dasharray="10 5"/>
<path d="M67.5455 132.705V74.5227H81V78.9773H72.6364V128.25H81V132.705H67.5455Z" fill="#32C572"/>
<path d="M139.636 74.5227V132.705H126.182V128.25H134.545V78.9773H126.182V74.5227H139.636Z" fill="#32C572"/>
<path d="M104.352 112.704C102.048 112.704 100.064 111.904 98.4 110.304C96.8 108.64 96 106.656 96 104.352C96 102.048 96.8 100.096 98.4 98.496C100.064 96.832 102.048 96 104.352 96C106.656 96 108.608 96.832 110.208 98.496C111.872 100.096 112.704 102.048 112.704 104.352C112.704 106.656 111.872 108.64 110.208 110.304C108.608 111.904 106.656 112.704 104.352 112.704ZM104.352 109.152C105.632 109.152 106.752 108.672 107.712 107.712C108.672 106.752 109.152 105.632 109.152 104.352C109.152 103.072 108.672 101.952 107.712 100.992C106.752 100.032 105.632 99.552 104.352 99.552C103.072 99.552 101.952 100.032 100.992 100.992C100.032 101.952 99.552 103.072 99.552 104.352C99.552 105.632 100.032 106.752 100.992 107.712C101.952 108.672 103.072 109.152 104.352 109.152Z" fill="#2A2D3F"/>
</svg>
