<svg width="208" height="408" viewBox="0 0 208 408" fill="none" xmlns="http://www.w3.org/2000/svg">
<rect x="0.5" y="0.5" width="207" height="407" rx="4.5" stroke="#8A38F5" stroke-dasharray="10 5"/>
<path d="M67.5455 132.705V74.5227H81V78.9773H72.6364V128.25H81V132.705H67.5455Z" fill="#32C572"/>
<path d="M139.636 74.5227V132.705H126.182V128.25H134.545V78.9773H126.182V74.5227H139.636Z" fill="#32C572"/>
<path d="M104.352 112.704C102.048 112.704 100.064 111.904 98.4 110.304C96.8 108.64 96 106.656 96 104.352C96 102.048 96.8 100.096 98.4 98.496C100.064 96.832 102.048 96 104.352 96C106.656 96 108.608 96.832 110.208 98.496C111.872 100.096 112.704 102.048 112.704 104.352C112.704 106.656 111.872 108.64 110.208 110.304C108.608 111.904 106.656 112.704 104.352 112.704ZM104.352 109.152C105.632 109.152 106.752 108.672 107.712 107.712C108.672 106.752 109.152 105.632 109.152 104.352C109.152 103.072 108.672 101.952 107.712 100.992C106.752 100.032 105.632 99.552 104.352 99.552C103.072 99.552 101.952 100.032 100.992 100.992C100.032 101.952 99.552 103.072 99.552 104.352C99.552 105.632 100.032 106.752 100.992 107.712C101.952 108.672 103.072 109.152 104.352 109.152Z" fill="#E6EBF9"/>
<path d="M67.5455 332.705V274.523H81V278.977H72.6364V328.25H81V332.705H67.5455Z" fill="#32C572"/>
<path d="M139.636 274.523V332.705H126.182V328.25H134.545V278.977H126.182V274.523H139.636Z" fill="#32C572"/>
<path d="M104.352 312.704C102.048 312.704 100.064 311.904 98.4 310.304C96.8 308.64 96 306.656 96 304.352C96 302.048 96.8 300.096 98.4 298.496C100.064 296.832 102.048 296 104.352 296C106.656 296 108.608 296.832 110.208 298.496C111.872 300.096 112.704 302.048 112.704 304.352C112.704 306.656 111.872 308.64 110.208 310.304C108.608 311.904 106.656 312.704 104.352 312.704ZM104.352 309.152C105.632 309.152 106.752 308.672 107.712 307.712C108.672 306.752 109.152 305.632 109.152 304.352C109.152 303.072 108.672 301.952 107.712 300.992C106.752 300.032 105.632 299.552 104.352 299.552C103.072 299.552 101.952 300.032 100.992 300.992C100.032 301.952 99.552 303.072 99.552 304.352C99.552 305.632 100.032 306.752 100.992 307.712C101.952 308.672 103.072 309.152 104.352 309.152Z" fill="#2A2D3F"/>
</svg>
